<svg version="1.1" id="Layer_1" xmlns="http://www.w3.org/2000/svg" x="0" y="0" viewBox="0 0 512 512" xml:space="preserve"><path d="M434.44 110.654C401.18 45.876 334.359.003 255.98 0v101.329c55.478.004 100.593 43.671 100.594 99.151.001 54.805-45.49 102.048-100.594 102.051V512c70.645-73.617 151.953-154.542 187.529-251.428 17.788-48.451 14.47-104.072-9.069-149.918z" fill="#b3b3b3"/><path d="M68.492 260.572C104.066 357.458 185.374 438.383 256.02 512V302.531c-55.104-.003-100.595-47.247-100.594-102.051.001-55.478 45.116-99.147 100.594-99.151V0c-78.379.003-145.2 45.876-178.46 110.654-23.539 45.846-26.857 101.467-9.068 149.918z" fill="#979797"/><circle cx="256" cy="198.773" r="160" fill="#f0f0f0"/><path d="M249.043 198.772H416c0-14.442-1.924-28.431-5.511-41.739H249.043v41.739zm0-83.478h143.472a160.813 160.813 0 00-36.918-41.739H249.043v41.739zM256 358.772c37.655 0 72.267-13.015 99.598-34.783H156.402c27.331 21.768 61.942 34.783 99.598 34.783zm-136.516-76.521h273.033a159.048 159.048 0 0017.972-41.739H101.511a159.065 159.065 0 0017.973 41.739z" fill="#d80027"/><path d="M170.114 63.759h14.581l-13.563 9.853 5.181 15.943-13.562-9.854-13.562 9.854 4.476-13.774a160.898 160.898 0 00-31.034 34.586h4.672l-8.633 6.272a158.613 158.613 0 00-3.871 6.836l4.123 12.688-7.691-5.588a158.955 158.955 0 00-5.233 12.421l4.542 13.98h16.764l-13.562 9.854 5.18 15.942-13.562-9.853-8.124 5.903a161.386 161.386 0 00-1.237 19.951h160v-160c-31.606-.001-61.071 9.168-85.885 24.986zm6.2 119.013l-13.562-9.853-13.562 9.853 5.181-15.942-13.563-9.854h16.764l5.181-15.942 5.18 15.942h16.764l-13.563 9.854 5.18 15.942zm-5.181-62.551l5.181 15.942-13.562-9.853-13.562 9.853 5.181-15.942-13.563-9.853h16.764l5.181-15.943 5.18 15.943h16.764l-13.564 9.853zm62.573 62.551l-13.562-9.853-13.562 9.853 5.181-15.942-13.562-9.854h16.764l5.18-15.942 5.18 15.942h16.764l-13.562 9.854 5.179 15.942zm-5.181-62.551l5.18 15.942-13.562-9.853-13.562 9.853 5.181-15.942-13.562-9.853h16.764l5.18-15.943 5.18 15.943h16.764l-13.563 9.853zm0-46.609l5.18 15.943-13.562-9.854-13.562 9.854 5.181-15.943-13.562-9.853h16.764l5.18-15.943 5.18 15.943h16.764l-13.563 9.853z" fill="#0052b4"/><path d="M255.928 21.706c-73.745 0-141.451 47.553-166.61 116.807-25.343 69.773-3.142 149.835 53.974 197.07 57.236 47.338 140.369 53.625 203.978 15.148 63.626-38.489 97.228-114.681 82.271-187.573C414.888 91.77 355.517 35.12 283.472 23.842a178.226 178.226 0 00-27.544-2.136M398.59 263.184c-30.241 67.01-105.732 104.802-177.479 88.399-55.215-12.621-100.384-55.764-115.778-110.195-15.749-55.658 1.328-116.804 43.417-156.425 45.534-42.867 114.172-54.571 171.321-28.799 68.228 30.767 105.971 108.144 87.651 180.845-2.263 8.977-5.352 17.73-9.132 26.175-2.088 4.627 1.542-3.445 0 0" fill="#c7c7c7"/></svg>