<svg xmlns="http://www.w3.org/2000/svg" width="350" height="350"><g id="icon" stroke="none" stroke-width="1" stroke-dasharray="none" stroke-linecap="butt" stroke-linejoin="miter" stroke-miterlimit="10" fill="#000" fill-rule="nonzero" opacity="1"><path d="M40.756 42.489h-1.96a1.483 1.483 0 110-2.968h1.96a1.483 1.483 0 110 2.968z" transform="matrix(3.89 0 0 3.89 -1.944 -1.944)"/><path d="M89.985 44.526c-.919-6.254-12.283-9.606-22.7-9.646-15.461-11.31-34.615-11.762-56.938-1.342L3.621 34.66A4.319 4.319 0 000 38.934v10.024c0 1.039.374 2.044 1.051 2.829l2.335 2.708a4.329 4.329 0 003.282 1.504h2.184c.862 4.542 4.855 7.989 9.644 7.989 4.79 0 8.783-3.447 9.645-7.989h36.341c.862 4.542 4.855 7.989 9.645 7.989s8.783-3.447 9.645-7.989h1.894A4.34 4.34 0 0090 51.665v-6.924l-.015-.215zm-4.268-1.78h-1.323l-.858-1.507c.868.473 1.613.976 2.181 1.507zm-23.796-7.865H31.404l-2.397-4.702c12.359-2.653 23.245-1.086 32.914 4.702zm-43.424 26.14a6.862 6.862 0 01-6.855-6.854 6.863 6.863 0 016.855-6.855 6.863 6.863 0 016.855 6.855 6.862 6.862 0 01-6.855 6.854zm55.631 0a6.862 6.862 0 01-6.855-6.854c0-3.78 3.075-6.855 6.855-6.855s6.855 3.075 6.855 6.855a6.862 6.862 0 01-6.855 6.854zm11.538-7.989h-1.787c-.565-4.883-4.719-8.688-9.751-8.688s-9.186 3.805-9.751 8.688H28.248c-.565-4.883-4.719-8.688-9.751-8.688-5.032 0-9.186 3.805-9.751 8.688H6.668c-.398 0-.775-.173-1.035-.474l-2.335-2.709a1.364 1.364 0 01-.331-.89V42.49h1.619a1.483 1.483 0 100-2.968H2.967v-.588c0-.671.48-1.238 1.142-1.348l7.128-1.188.185-.087c5.087-2.387 9.954-4.187 14.619-5.417l3.122 6.125 5.664 11.628a1.484 1.484 0 002.668-1.3l-4.628-9.499h33.437l.004.003.498-.003c4.47-.04 8.798.582 12.301 1.616l3.134 5.5c.265.463.756.749 1.289.749h3.502v5.952a1.367 1.367 0 01-1.366 1.367z" transform="matrix(3.89 0 0 3.89 -1.944 -1.944)"/><path d="M74.128 49.449a4.723 4.723 0 00-4.718 4.718c0 2.601 2.116 4.717 4.718 4.717s4.718-2.116 4.718-4.717a4.723 4.723 0 00-4.718-4.718zm0 6.468a1.752 1.752 0 01-1.751-1.75c0-.966.785-1.751 1.751-1.751s1.751.785 1.751 1.751c0 .965-.786 1.75-1.751 1.75zm-55.631-6.468a4.723 4.723 0 00-4.718 4.718c0 2.601 2.116 4.717 4.718 4.717s4.718-2.116 4.718-4.717a4.723 4.723 0 00-4.718-4.718zm0 6.468a1.753 1.753 0 01-1.751-1.75c0-.966.785-1.751 1.751-1.751.965 0 1.751.785 1.751 1.751 0 .965-.786 1.75-1.751 1.75z" transform="matrix(3.89 0 0 3.89 -1.944 -1.944)"/></g></svg>